<svg id="Capa_1" enable-background="new 0 0 512.098 512.098" height="512" viewBox="0 0 512.098 512.098" width="512" xmlns="http://www.w3.org/2000/svg"><g>
    <defs>
        <linearGradient id="HoverGradient">
          <stop offset="0%" stop-color="#00f5a0" />
          <stop offset="100%" stop-color="#00d9f5" />
        </linearGradient>
    </defs>
        <path d="m283.803 249.51-57.099 57.099c-5.858 5.857-15.354 5.858-21.213 0-5.858-5.857-5.858-15.355 0-21.213l57.099-57.099c-13.88-16.795-23.741-35.815-29.573-55.775l-216.705 229.666c-22.264 23.764-21.666 60.415 1.359 83.44l8.801 8.801c23.026 23.028 59.68 23.62 83.479 1.323l229.627-216.669c-19.96-5.832-38.98-15.693-55.775-29.573z"/><path d="m283.728 48.572 179.81 179.8c-21.83 17.3-49.43 27.63-79.44 27.63-70.69 0-128-57.31-128-128 0-30.009 10.33-57.6 27.63-79.43z"/><path d="m512.098 128.003c0 29.87-10.24 57.35-27.38 79.13l-179.75-179.75c21.78-17.14 49.26-27.38 79.13-27.38 70.69 0 128 57.31 128 128z"/>
    </g>    
</svg>